# xmcd
#
# Track frame offsets: 
#        182
#        15517
#        31070
#        47462
#        61587
#        77952
#        95710
#        109565
#        123942
#        143932
#        156152
#        173947
#
# Disc length: 2518 seconds
#
# Revision: 2
# Processed by: cddbd v1.5.1PL2 Copyright (c) Steve Scherf et al.
# Submitted via: ExactAudioCopy v0.95b3
#
DISCID=8e09d40c
DTITLE=Jimmy Tittle - Fade To Black
DYEAR=1989
DGENRE=Country
TTITLE0=Coming Home Tonight
TTITLE1=Coming Back To You
TTITLE2=Too Late To Just Say No
TTITLE3=Sweet Little Lisa
TTITLE4=I Loved Her Yesterday
TTITLE5=The Man I Never Knew
TTITLE6=All I Want
TTITLE7=Love Has Wings
TTITLE8=For The First Time
TTITLE9=Gonna Be A Long Time
TTITLE10=The Man I Could Have Been
TTITLE11=I'm Sorry Lord
EXTD=(c)1989 Dixie Frog (France]\nupc 3347120021339\nCatalog: DFG 8420
EXTD=CD - NR 760\n
EXTT0=
EXTT1=
EXTT2=
EXTT3=
EXTT4=
EXTT5=
EXTT6=
EXTT7=
EXTT8=
EXTT9=
EXTT10=
EXTT11=with Marty Stuart
PLAYORDER=
